<?xml version="1.0" encoding="utf-8"?>
<!-- Generator: Adobe Illustrator 22.1.0, SVG Export Plug-In . SVG Version: 6.00 Build 0)  -->
<svg version="1.1" id="Layer_1" xmlns="http://www.w3.org/2000/svg" xmlns:xlink="http://www.w3.org/1999/xlink" x="0px" y="0px"
	 viewBox="0 0 612 792" style="enable-background:new 0 0 612 792;" xml:space="preserve">
<g>
	<g>
		<path d="M136.3,61.7c-54.5,22.5-81.2,86.7-77.1,142.8c2,27.4,11.2,55.2,30,75.7c22.9,24.9,56.8,32.5,89.1,36.4
			c19.4,2.3,38.9,2.9,58.4,1.8c14-0.8,28.3-2.7,41.3-8.3c12.9-5.6,23.3-15.3,27.9-28.7c5.1-14.8,3.1-31.3,0.3-46.3
			c-4.8-25.3-17.2-55.3-45.7-60.3c-16-2.8-32.8,2-47.2,8.7c-14,6.5-26.8,16-37,27.5c-22.4,25.2-31.3,58.7-34.5,91.5
			c-3.5,35.4-0.5,72.2,12.6,105.5c11.1,28.1,29.4,53.4,54,71.3c28.2,20.5,61.9,26,96,27.6c33.6,1.5,70.7,4.3,101.2-12.5
			c25.3-14,42.6-39.4,51.2-66.5c4.5-14.1,7.8-30.3,6.1-45.1c-1.6-13.8-9.6-24.9-22.2-30.7c-27.3-12.5-55.1,3.8-71.9,25.5
			c-39.2,50.7-37.8,124.8,1.3,174.9c18.4,23.6,44.9,42.9,74.2,50.1c16.3,4,32.5,2.5,47.6-4.8c13.7-6.6,25.5-16.9,34.8-28.9
			c18.3-23.5,27.1-53.6,27.6-83.1c0.6-36.5-10.5-72-24.7-105.2c-6.8-16-14.3-31.9-24.3-46.3c-9.5-13.6-21.3-24.8-34.9-34.4
			c-14.1-9.9-29.2-18.1-43.6-27.4c-14-9-27.6-18.8-39.9-30c-12.3-11.2-23.3-24-31.5-38.6c-3.9-6.9-8.2-15.2-1.4-21.7
			c4.8-4.6,11.9-6.6,18.2-7.6c17.3-3,37.9-3.8,53.8,4.9c14.2,7.8,24.3,23.3,19.4,39.7c-2.6,8.7-8,16.4-13.4,23.6
			c-5,6.7-10.5,13-16.3,19c-11.5,11.8-24.3,22.1-37.9,31.4c-27.9,19-58.5,33.3-89.2,46.9c-32.6,14.4-65.7,28.3-96.2,46.8
			c-27.8,16.8-52.8,37.8-73.8,62.7c-20.2,23.9-36.6,50.8-48.4,79.8c-12.9,31.4-22.5,67-17.8,101.1c4.1,29.8,21.1,58.5,50,69.9
			c15.5,6.1,34.9,8.9,51.5,7.1c16.7-1.9,28.4-11.9,38.3-24.8c19.9-25.8,35.1-58.7,27.8-91.9c-7.4-33.3-33.8-57.6-59.4-78
			c-13.9-11-28.1-21.6-41-33.8c-11.8-11.2-22.7-23.5-32-36.9c-18.7-26.9-31.1-58.2-32.2-91.1c-2.2-68.2,39.3-129.6,94.7-166
			c27.1-17.8,57.2-30.5,88.4-39.1c3.1-0.9,1.8-5.7-1.3-4.8c-59.1,16.4-116.3,48.1-152.1,99.3c-17.3,24.7-29.2,53.4-33.2,83.4
			c-4.1,30,0.5,60.1,12.7,87.8c12.2,27.7,31.2,52.2,53.2,72.7c24.8,23,54.7,40.4,76.3,66.8c10.1,12.4,18.3,26.8,21.5,42.6
			c3.4,16.8,0.4,34.2-6,50c-6.3,15.5-15.7,30.6-27,43c-5.9,6.5-12.8,12-21.4,14.4c-8.4,2.4-17.3,2-25.9,1.3
			c-17.3-1.6-35-5.6-48.7-16.9c-11.5-9.5-19.7-22.5-24.6-36.4c-11.5-33.1-3.9-69.9,7.1-102c19.8-58,58.4-109.6,108.8-144.6
			c55.3-38.4,121.1-56.9,179.1-90.2c26.5-15.2,51.7-33.5,71.6-56.9c9.4-11.1,20.2-24.1,22.8-38.9c2.3-12.9-3.3-25.4-12.8-34.1
			c-11.1-10.3-26.1-14.1-40.9-14.5c-13.3-0.3-29.2,0.3-41.2,6.7c-4.4,2.4-8.5,5.9-10.2,10.8c-2.1,5.8,0,11.6,2.7,16.9
			c6.9,13.6,16.4,25.8,27,36.6c22,22.4,49,38.4,75.5,54.7c14.1,8.7,28.1,18,39.3,30.4c11.5,12.6,20,27.7,27.3,43
			c27.6,58.2,48.2,131.2,11,190.1c-17.3,27.5-48,48.8-81.7,41.2c-29.4-6.6-56.1-26.2-74.2-49.9c-38-49.9-38.4-126.2,4.6-173.6
			c10.2-11.2,23.9-20.8,39.5-21.9c13.2-0.9,27.9,4.1,35.5,15.4c8.9,13.1,5.8,31.7,2.6,46.2c-3.1,14.3-8.5,28-16.2,40.5
			c-7.5,12.2-17.3,23.1-29.2,31.1c-13.7,9.3-29.7,14-46.1,15.8c-17.2,1.9-34.7,1.2-52,0.5c-17.8-0.7-35.8-1.7-53.2-5.7
			c-30.5-7-56.7-24.5-76-49c-20.7-26.2-32-58.7-35.7-91.6c-3.7-33.4-1.3-69.4,10-101.3c10.9-30.7,32.9-56.3,63.4-68.7
			c15.5-6.3,34.4-10.5,50.1-2.6c12.2,6.2,20,18.4,24.8,30.8c5.2,13.4,8.1,28.1,8.7,42.4c0.8,16.4-3.3,32.7-17,42.9
			c-11.3,8.4-25.7,11.7-39.4,13.2c-17.4,1.9-35.2,1.8-52.6,0.6c-33.2-2.3-71.1-7.6-96.6-31c-42.4-39.1-42.3-109.6-18.4-158.3
			c12.3-24.9,31.8-46.6,57.8-57.4C140.6,65.3,139.3,60.4,136.3,61.7L136.3,61.7z"/>
	</g>
</g>
</svg>
