<svg id="Layer_1" data-name="Layer 1" xmlns="http://www.w3.org/2000/svg" viewBox="0 0 154.83 449.74"><defs><style>.cls-1{fill:none;stroke:#020202;stroke-miterlimit:10;stroke-width:1.11px;}</style></defs><title>vector2</title><path d="M387.9,455.06l-40.61,40.39,21.5,22.64-54.59,56-57.11-55.69c8-7.34,15.77-14.5,23.63-21.71L239.39,455.5l51.66-51.56-39.67-38.71,39.09-40.11,20.63,20.11c0-4.19.14-7.48-.09-10.75a5.55,5.55,0,0,0-1.77-3c-9.63-9.9-19.16-19.9-29.07-29.5-3.38-3.27-4.27-6.36-2.46-10.56L310,323.89l1.08-.58c0-3.94.13-7.88-.1-11.8-.06-1-1.18-2.06-2-2.9-10.72-10.86-21.47-21.68-32.42-32.73l2-2.47,31.51,32.33c1.12-5.52,1.62-10-2.91-14.25-11.69-11-22.8-22.55-34.14-33.9-.87-.86-1.69-1.76-2.78-2.9l9.5-8.65-44-43.87,77.87-77.78,77,77-45.47,45.38,12.07,11.55c-7.42,7-14.36,13.53-21.31,20.05-5,4.73-9.8,9.8-15.21,14C316,296,315,300.19,316.28,306l31.46-33.48,2.35,2.24c-10.4,11.09-20.59,22.11-31,32.94-2.33,2.43-3.66,4.78-3.26,8.19a67.06,67.06,0,0,1,.05,7.43l32.21-32.41c2.81,6.39,2.73,7-1.32,11-9.13,9.14-18.2,18.34-27.45,27.37-2.46,2.41-4,4.82-3.49,8.39a32.48,32.48,0,0,1,.05,4.93l16.88-16.41L373,365.35l-37,38Zm-136-254.32,36.69,36.64,23.66-24.06,25.12,25.52,37.76-37.56L313.25,139.4Zm58.93,181.67-18-17.35,17.43-16.46-19.51-21.3-37,37.91c12.58,12.26,25.05,24.42,36.93,36Zm22.51-53.35c-5.2,5-10.35,9.91-15.42,14.9-2.9,2.85-2.83,3.59.1,6.51L333.65,366l-17.36,17.16L335,401.84l35.53-36.45Zm23.75,129.28-22.67,23.39,7.29,8.56L377,455.13l-62.67-62.78c0,3.85.43,8-.09,12-1.14,8.66,1,15.66,8.56,20.62a21,21,0,0,1,2.89,2.78Zm-44.44-66.22-63.08,63.11,35.06,35.08,8.31-7.54L270.29,459q20.16-20.66,40.47-41.5c.74-.76,1.76-1.74,1.77-2.63C312.67,407.28,312.61,399.66,312.61,392.12ZM291.18,522.67l7.67-7.06c-4.65-4.65-9-9-12.63-12.61-5.54,5-11.37,10.3-17.37,15.72l45.2,44.08,43-44.11-15.24-16.63L329.16,514.3l7.8,7.2-23.09,23.13Zm2.18-42.07c6.49-6,12.35-11.28,18-16.76a5.88,5.88,0,0,0,1.21-3.86c.08-12.79.05-25.57,0-38.36,0-.82-.1-1.65-.2-3.14l-39.17,40.19Zm61.35-22c-13.52-13.18-26.59-25.92-39.78-38.76-.31.63-.48.82-.48,1q0,20.85,0,41.69a3.63,3.63,0,0,0,.87,2.38c5.49,5.47,11.06,10.86,15.76,15.45Zm-22-214.55-21-20.87-18.89,19,20.83,20.87Zm14.82,14.56-7.3-6.58L313.28,279l-28.57-28.7-5.09,4.16,34.95,35ZM293.85,523,313.64,542l21-20.39L327,514.72l-13.89,14.8L300.4,515.91C298.11,518.38,296.15,520.49,293.85,523Zm6.94-37L313,499l12.54-11-12.15-13.27C309,478.63,304.69,482.49,300.79,486Zm-.6,2.8c-3.43,3-6.39,5.64-8.69,7.67l13.25,13.43,7.48-8ZM323.28,509l12.17-12.21c-2.44-2.51-5.14-5.27-7.34-7.54l-13.31,12Zm-.75,1.62L314,502.84l-7.92,8.37,7.48,7.71ZM311,356.3l-9.27,9,9.27,9.41ZM325.47,366l-9.37-10v19.32Z" transform="translate(-235.72 -124.39)"/><rect class="cls-1" x="283.37" y="227.4" width="61.71" height="55.39" transform="translate(36.69 -271.87) rotate(45)"/></svg>