<svg id="Layer_1" data-name="Layer 1" xmlns="http://www.w3.org/2000/svg" viewBox="0 0 503.93 646.37"><defs><style>.cls-1{fill:#231f20;}</style></defs><title>vector1,1</title><path class="cls-1" d="M136.33,61.66C81.84,84.17,55.17,148.39,59.24,204.5c2,27.44,11.16,55.2,30,75.74,22.86,24.91,56.78,32.55,89.08,36.37a333.86,333.86,0,0,0,58.37,1.79c14-.8,28.27-2.66,41.26-8.29s23.28-15.26,27.9-28.72c5.08-14.77,3.14-31.28.28-46.3-4.82-25.34-17.23-55.3-45.74-60.33-16-2.82-32.78,2-47.2,8.71a113.94,113.94,0,0,0-37,27.53c-22.36,25.15-31.29,58.75-34.51,91.54-3.48,35.43-.48,72.17,12.63,105.5,11.06,28.13,29.44,53.42,54,71.26,28.24,20.51,61.9,26,96,27.57,33.56,1.53,70.69,4.27,101.19-12.55,25.34-14,42.57-39.39,51.2-66.55,4.48-14.11,7.79-30.3,6.05-45.14a37.74,37.74,0,0,0-22.22-30.69c-27.35-12.54-55.14,3.78-71.95,25.51-39.22,50.7-37.77,124.75,1.34,174.87,18.4,23.58,44.86,42.88,74.16,50.1a69.2,69.2,0,0,0,47.61-4.78c13.69-6.61,25.54-16.9,34.83-28.86,18.28-23.51,27.12-53.59,27.57-83.14.56-36.5-10.47-72-24.7-105.24-6.85-16-14.3-31.93-24.26-46.26-9.49-13.64-21.33-24.84-34.89-34.36-14.06-9.88-29.18-18.13-43.61-27.44-14-9-27.58-18.75-39.89-30s-23.3-24-31.48-38.56c-3.86-6.87-8.22-15.17-1.41-21.69,4.79-4.58,11.88-6.55,18.24-7.64,17.31-3,37.92-3.8,53.78,4.88,14.25,7.79,24.28,23.27,19.44,39.72-2.56,8.69-8,16.43-13.42,23.6a190.39,190.39,0,0,1-16.33,19A248.47,248.47,0,0,1,377.63,293c-27.86,19-58.47,33.28-89.21,46.87-32.61,14.43-65.65,28.3-96.22,46.83A297.38,297.38,0,0,0,70,529.16c-12.88,31.38-22.5,67-17.82,101.11,4.09,29.83,21.12,58.49,50,69.91,15.53,6.14,34.91,9,51.53,7.07s28.37-11.92,38.32-24.81c19.88-25.77,35.14-58.74,27.76-91.88s-33.8-57.65-59.44-77.95c-13.89-11-28.14-21.59-41-33.78a238.35,238.35,0,0,1-32-36.91c-18.67-26.87-31.11-58.19-32.18-91.13-2.21-68.24,39.28-129.57,94.71-166,27.08-17.81,57.21-30.47,88.39-39.09,3.09-.86,1.78-5.68-1.33-4.82C177.78,157.2,120.6,188.94,84.86,240.1c-17.26,24.71-29.18,53.45-33.24,83.38a163,163,0,0,0,12.71,87.85C76.51,439,95.48,463.5,117.55,484c24.77,23,54.75,40.43,76.32,66.82,10.14,12.41,18.25,26.83,21.45,42.65,3.41,16.84.36,34.21-6,50a146.7,146.7,0,0,1-27,43c-5.9,6.49-12.83,12-21.4,14.43-8.4,2.38-17.33,2-25.94,1.26-17.33-1.57-35-5.58-48.71-16.89-11.47-9.47-19.74-22.46-24.58-36.45-11.45-33.08-3.93-69.85,7.07-102,19.84-58,58.45-109.56,108.82-144.56,55.26-38.41,121.07-56.87,179.13-90.19,26.49-15.21,51.69-33.53,71.6-56.88,9.44-11.08,20.21-24.15,22.8-38.87,2.28-12.9-3.33-25.39-12.77-34.09-11.15-10.27-26.09-14.13-40.94-14.5-13.28-.33-29.21.3-41.21,6.74-4.42,2.37-8.49,5.91-10.21,10.76-2.07,5.84,0,11.62,2.69,16.87,6.86,13.56,16.35,25.79,27,36.58,22,22.38,49,38.39,75.53,54.72,14.14,8.71,28.06,18.05,39.35,30.38,11.53,12.6,20,27.68,27.27,43,27.63,58.2,48.2,131.17,11,190.09-17.34,27.49-48,48.78-81.66,41.19-29.41-6.64-56.14-26.17-74.24-49.91-38-49.9-38.44-126.2,4.61-173.63,10.19-11.22,23.91-20.83,39.46-21.88,13.21-.89,27.88,4.13,35.54,15.45,8.85,13.1,5.79,31.69,2.6,46.21A130.5,130.5,0,0,1,439,454.72a101.31,101.31,0,0,1-29.21,31.12c-13.75,9.26-29.75,14-46.12,15.8-17.23,1.93-34.69,1.16-52,.53-17.84-.66-35.79-1.7-53.24-5.7-30.49-7-56.68-24.53-76-49-20.7-26.2-32-58.65-35.67-91.63-3.69-33.45-1.27-69.43,10-101.3,10.87-30.75,32.93-56.31,63.45-68.71,15.49-6.3,34.41-10.51,50.09-2.6,12.22,6.16,20,18.37,24.81,30.79a136.39,136.39,0,0,1,8.73,42.39c.76,16.36-3.26,32.74-17,42.93-11.26,8.36-25.69,11.67-39.4,13.19a297.26,297.26,0,0,1-52.61.62c-33.2-2.28-71.15-7.56-96.62-31-42.4-39.06-42.31-109.56-18.37-158.27,12.25-24.94,31.78-46.63,57.81-57.39,2.94-1.21,1.65-6.05-1.33-4.82Z" transform="translate(-50.18 -61.46)"/></svg>