<?xml version="1.0" encoding="utf-8"?>
<!-- Generator: Adobe Illustrator 22.1.0, SVG Export Plug-In . SVG Version: 6.00 Build 0)  -->
<svg version="1.1" id="Layer_1" xmlns="http://www.w3.org/2000/svg" xmlns:xlink="http://www.w3.org/1999/xlink" x="0px" y="0px"
	 viewBox="0 0 612 792" style="enable-background:new 0 0 612 792;" xml:space="preserve">
<style type="text/css">
	.st0{fill:#FFFFFF;}
</style>
<g>
	<path d="M376.8,455.8c-13.9,13.9-27.3,27.2-40.6,40.4c7.1,7.5,14.1,14.9,21.5,22.6c-17.9,18.4-36.1,37.1-54.6,56
		c-18.9-18.4-37.6-36.7-57.1-55.7c8-7.3,15.8-14.5,23.6-21.7c-14.2-14.2-27.8-27.7-41.3-41.2c17.4-17.4,34.4-34.4,51.7-51.6
		c-13.4-13.1-26.4-25.8-39.7-38.7c13.1-13.4,25.9-26.6,39.1-40.1c6.7,6.5,13.3,13,20.6,20.1c0-4.2,0.1-7.5-0.1-10.8
		c-0.1-1-1-2.2-1.8-3c-9.6-9.9-19.2-19.9-29.1-29.5c-3.4-3.3-4.3-6.4-2.5-10.6c10.8,10.8,21.5,21.7,32.3,32.5
		c0.4-0.2,0.7-0.4,1.1-0.6c0-3.9,0.1-7.9-0.1-11.8c-0.1-1-1.2-2.1-2-2.9c-10.7-10.9-21.5-21.7-32.4-32.7c0.5-0.6,1-1.3,2-2.5
		c10.6,10.9,21.1,21.6,31.5,32.3c1.1-5.5,1.6-10-2.9-14.2c-11.7-11-22.8-22.6-34.1-33.9c-0.9-0.9-1.7-1.8-2.8-2.9
		c3.2-3,6.4-5.9,9.5-8.7c-15.1-15.1-29.7-29.6-44-43.9c26.4-26.4,52.3-52.2,77.9-77.8c25.4,25.4,51.1,51.2,77,77
		c-14.9,14.9-30.1,30.1-45.5,45.4c4.2,4,8,7.7,12.1,11.5c-7.4,7-14.4,13.5-21.3,20.1c-5,4.7-9.8,9.8-15.2,14
		c-4.6,3.6-5.6,7.8-4.4,13.6c10.6-11.3,21-22.3,31.5-33.5c0.8,0.8,1.5,1.5,2.4,2.2c-10.4,11.1-20.6,22.1-31,32.9
		c-2.3,2.4-3.7,4.8-3.3,8.2c0.3,2.3,0.1,4.6,0.1,7.4c10.9-11,21.5-21.6,32.2-32.4c2.8,6.4,2.7,7-1.3,11
		c-9.1,9.1-18.2,18.3-27.4,27.4c-2.5,2.4-4,4.8-3.5,8.4c0.2,1.6,0,3.3,0,4.9c5.6-5.4,11.1-10.8,16.9-16.4
		c13.5,13.1,26.8,26.1,40.2,39.2c-12.4,12.8-24.7,25.3-37,38C342.1,421.2,359.2,438.2,376.8,455.8z M240.7,201.4
		c11.9,11.9,24,24,36.7,36.6c7.5-7.6,15.4-15.6,23.7-24.1c8.5,8.6,17,17.3,25.1,25.5c12.8-12.7,25.5-25.3,37.8-37.6
		c-20.6-20.6-41.3-41.3-61.8-61.9C281.7,160.5,261,181.2,240.7,201.4z M299.7,383.1c-6-5.7-11.6-11.2-18-17.4
		c6.2-5.9,12.3-11.6,17.4-16.5c-6.6-7.2-13-14.1-19.5-21.3c-12.5,12.9-24.6,25.3-37,37.9c12.6,12.3,25.1,24.4,36.9,36
		C286.2,395.6,292.7,389.7,299.7,383.1z M322.2,329.8c-5.2,5-10.4,9.9-15.4,14.9c-2.9,2.9-2.8,3.6,0.1,6.5
		c5.1,5.1,10.2,10.1,15.7,15.5c-6.1,6-11.8,11.7-17.4,17.2c6.2,6.2,12.4,12.4,18.7,18.7c11.6-11.9,23.5-24.1,35.5-36.5
		C346.8,353.7,334.4,341.6,322.2,329.8z M345.9,459c-8,8.3-15.7,16.2-22.7,23.4c2.8,3.2,5.3,6.3,7.3,8.6c12.1-12,24-23.9,35.4-35.2
		c-20.7-20.8-41.7-41.7-62.7-62.8c0,3.8,0.4,8-0.1,12c-1.1,8.7,1,15.7,8.6,20.6c1.1,0.7,1.9,1.8,2.9,2.8
		C325,438.6,335.3,448.7,345.9,459z M301.5,392.8c-21.2,21.2-42.2,42.2-63.1,63.1c11.7,11.7,23.6,23.6,35.1,35.1
		c2.8-2.5,5.7-5.2,8.3-7.5c-7.6-8-15.1-15.8-22.6-23.7c13.4-13.8,27-27.6,40.5-41.5c0.7-0.8,1.8-1.7,1.8-2.6
		C301.6,408,301.5,400.4,301.5,392.8z M280.1,523.4c2.8-2.6,5.5-5,7.7-7.1c-4.7-4.7-9-9-12.6-12.6c-5.5,5-11.4,10.3-17.4,15.7
		c15.3,14.9,30.2,29.4,45.2,44.1c14.7-15.1,29.2-29.9,43-44.1c-5.4-5.9-10.6-11.5-15.2-16.6c-4.4,4.2-8.5,8.2-12.6,12.2
		c2.5,2.3,5.2,4.8,7.8,7.2c-7.8,7.8-15.3,15.4-23.1,23.1C295.3,538.1,287.8,530.9,280.1,523.4z M282.3,481.3
		c6.5-6,12.3-11.3,18-16.8c0.9-0.8,1.2-2.6,1.2-3.9c0.1-12.8,0.1-25.6,0-38.4c0-0.8-0.1-1.7-0.2-3.1c-13.6,13.9-26.7,27.4-39.2,40.2
		C269.2,467.1,276,474.5,282.3,481.3z M343.6,459.3c-13.5-13.2-26.6-25.9-39.8-38.8c-0.3,0.6-0.5,0.8-0.5,1c0,13.9-0.1,27.8,0,41.7
		c0,0.8,0.3,1.8,0.9,2.4c5.5,5.5,11.1,10.9,15.8,15.4C327.9,473.8,335.6,466.6,343.6,459.3z M321.5,244.8
		c-7.1-7.1-14.2-14.1-21-20.9c-6.3,6.3-12.7,12.8-18.9,19c6.8,6.8,13.9,13.9,20.8,20.9C308.7,257.6,315.1,251.2,321.5,244.8z
		 M336.4,259.3c-2.4-2.2-4.7-4.3-7.3-6.6c-8.7,8.7-17.6,17.6-26.9,27c-9.8-9.8-19.4-19.5-28.6-28.7c-1.9,1.6-3.6,3-5.1,4.2
		c11.7,11.7,23.3,23.3,34.9,35C314.3,280,325.2,269.8,336.4,259.3z M282.7,523.6c6.8,6.6,13.6,13.1,19.8,19.1
		c7.1-6.9,14-13.6,21-20.4c-2.4-2.1-4.7-4.3-7.6-6.9c-4.5,4.8-8.9,9.5-13.9,14.8c-4.4-4.7-8.4-9-12.7-13.6
		C287,519.1,285,521.2,282.7,523.6z M289.7,486.7c4.6,4.8,8.8,9.3,12.2,13c4.6-4,8.9-7.9,12.5-11c-4.3-4.7-8.4-9.2-12.1-13.3
		C297.9,479.3,293.6,483.2,289.7,486.7z M289.1,489.5c-3.4,3-6.4,5.6-8.7,7.7c4.4,4.4,8.7,8.8,13.2,13.4c2.5-2.6,5.2-5.5,7.5-8
		C296.9,498,292.7,493.4,289.1,489.5z M312.2,509.7c4.4-4.4,8.4-8.4,12.2-12.2c-2.4-2.5-5.1-5.3-7.3-7.5c-4.3,3.9-8.7,7.9-13.3,12
		C306.9,504.9,309.7,507.4,312.2,509.7z M311.4,511.3c-2.9-2.6-5.6-5.1-8.6-7.8c-2.9,3.1-5.7,6-7.9,8.4c2.5,2.6,5.2,5.4,7.5,7.7
		C305.2,517,308.2,514.2,311.4,511.3z M299.8,357c-3.4,3.3-6.7,6.6-9.3,9c3.1,3.2,6.4,6.5,9.3,9.4
		C299.8,369.6,299.8,363.2,299.8,357z M314.4,366.7c-3-3.2-6.1-6.6-9.4-10c0,6.6,0,13.1,0,19.3C308.3,372.7,311.5,369.5,314.4,366.7
		z"/>
	<path d="M323.4,96.6c-7.1,7.1-14.4,14.4-21.6,21.5c-6.8-6.8-13.8-13.8-21.1-21.1c7.4-6.9,15-14,22.3-20.8
		C310,83.2,316.8,90,323.4,96.6z M303,87c-3.8,3.5-7.4,6.9-10.6,9.9c3.4,3.6,6.6,6.9,9.6,10c3.5-3.5,7.1-7,10.6-10.5
		C309.5,93.5,306.4,90.4,303,87z"/>
	<path class="st0" d="M240.7,201.4c20.2-20.2,40.9-40.9,61.4-61.3c20.5,20.5,41.3,41.3,61.8,61.9c-12.3,12.2-25,24.8-37.8,37.6
		c-8.1-8.3-16.6-16.9-25.1-25.5c-8.3,8.4-16.1,16.4-23.7,24.1C264.7,225.4,252.7,213.3,240.7,201.4z"/>
	<path class="st0" d="M299.7,383.1c-7,6.6-13.4,12.5-20.1,18.8c-11.9-11.6-24.3-23.7-36.9-36c12.3-12.6,24.4-25.1,37-37.9
		c6.6,7.2,12.9,14.1,19.5,21.3c-5.2,4.9-11.2,10.6-17.4,16.5C288.1,371.9,293.7,377.4,299.7,383.1z"/>
	<path class="st0" d="M322.2,329.8c12.2,11.9,24.6,24,37.3,36.3c-12,12.4-23.9,24.5-35.5,36.5c-6.3-6.3-12.5-12.5-18.7-18.7
		c5.5-5.5,11.3-11.1,17.4-17.2c-5.5-5.4-10.6-10.5-15.7-15.5c-2.9-2.9-3-3.7-0.1-6.5C311.8,339.7,317,334.8,322.2,329.8z"/>
	<path class="st0" d="M345.9,459c-10.6-10.4-21-20.5-31.3-30.6c-1-0.9-1.8-2.1-2.9-2.8c-7.5-5-9.7-12-8.6-20.6c0.5-4,0.1-8.2,0.1-12
		c21,21,41.9,42,62.7,62.8c-11.3,11.3-23.3,23.2-35.4,35.2c-2-2.3-4.5-5.3-7.3-8.6C330.2,475.3,337.9,467.3,345.9,459z"/>
	<path class="st0" d="M301.5,392.8c0,7.5,0.1,15.2-0.1,22.8c0,0.9-1,1.9-1.8,2.6c-13.5,13.9-27,27.7-40.5,41.5
		c7.5,7.9,15,15.7,22.6,23.7c-2.6,2.4-5.5,5-8.3,7.5c-11.5-11.5-23.4-23.4-35.1-35.1C259.3,435,280.3,414,301.5,392.8z"/>
	<path class="st0" d="M280.1,523.4c7.8,7.5,15.3,14.8,22.7,22c7.7-7.8,15.3-15.4,23.1-23.1c-2.6-2.4-5.3-4.9-7.8-7.2
		c4.2-4,8.3-8,12.6-12.2c4.7,5.1,9.8,10.7,15.2,16.6c-13.8,14.2-28.3,29-43,44.1c-15-14.7-29.9-29.2-45.2-44.1
		c6-5.4,11.8-10.7,17.4-15.7c3.6,3.6,8,8,12.6,12.6C285.6,518.3,282.9,520.8,280.1,523.4z"/>
	<path class="st0" d="M282.3,481.3c-6.2-6.8-13-14.2-20.1-21.9c12.5-12.8,25.6-26.2,39.2-40.2c0.1,1.5,0.2,2.3,0.2,3.1
		c0,12.8,0,25.6,0,38.4c0,1.3-0.3,3-1.2,3.9C294.6,470,288.7,475.3,282.3,481.3z"/>
	<path class="st0" d="M343.6,459.3c-8,7.3-15.7,14.4-23.7,21.8c-4.7-4.6-10.3-10-15.8-15.4c-0.5-0.5-0.9-1.6-0.9-2.4
		c0-13.9,0-27.8,0-41.7c0-0.2,0.2-0.4,0.5-1C317,433.4,330.1,446.1,343.6,459.3z"/>
	<path class="st0" d="M321.5,244.8c-6.5,6.5-12.8,12.8-19,19c-6.9-7-14-14-20.8-20.9c6.1-6.2,12.6-12.7,18.9-19
		C307.4,230.7,314.5,237.7,321.5,244.8z"/>
	<path class="st0" d="M336.4,259.3c-11.1,10.4-22.1,20.7-32.9,30.8c-11.7-11.7-23.2-23.3-34.9-35c1.5-1.2,3.2-2.6,5.1-4.2
		c9.2,9.2,18.8,18.9,28.6,28.7c9.3-9.3,18.2-18.3,26.9-27C331.6,255,334,257.1,336.4,259.3z"/>
	<path class="st0" d="M282.7,523.6c2.3-2.5,4.3-4.6,6.5-7c4.3,4.6,8.4,8.9,12.7,13.6c5-5.3,9.4-10,13.9-14.8
		c2.9,2.6,5.3,4.8,7.6,6.9c-7,6.8-13.9,13.5-21,20.4C296.3,536.7,289.5,530.2,282.7,523.6z"/>
	<path class="st0" d="M289.7,486.7c3.9-3.5,8.2-7.4,12.6-11.3c3.7,4,7.8,8.5,12.1,13.3c-3.6,3.2-8,7-12.5,11
		C298.5,496,294.2,491.5,289.7,486.7z"/>
	<path class="st0" d="M289.1,489.5c3.6,3.9,7.8,8.5,12,13.1c-2.3,2.5-5,5.4-7.5,8c-4.6-4.6-8.9-9-13.2-13.4
		C282.7,495.1,285.6,492.5,289.1,489.5z"/>
	<path class="st0" d="M312.2,509.7c-2.5-2.3-5.3-4.8-8.5-7.7c4.6-4.1,9-8.1,13.3-12c2.2,2.3,4.9,5,7.3,7.5
		C320.6,501.3,316.5,505.3,312.2,509.7z"/>
	<path class="st0" d="M311.4,511.3c-3.2,2.9-6.2,5.7-9,8.3c-2.3-2.4-4.9-5.1-7.5-7.7c2.3-2.4,5-5.3,7.9-8.4
		C305.8,506.2,308.5,508.7,311.4,511.3z"/>
	<path class="st0" d="M299.8,357c0,6.2,0,12.6,0,18.4c-2.9-3-6.2-6.3-9.3-9.4C293.1,363.5,296.5,360.3,299.8,357z"/>
	<path class="st0" d="M314.4,366.7c-2.8,2.8-6.1,6-9.4,9.3c0-6.2,0-12.7,0-19.3C308.2,360.1,311.4,363.5,314.4,366.7z"/>
	<path class="st0" d="M303,87c3.4,3.3,6.5,6.4,9.5,9.4c-3.5,3.5-7.1,7-10.6,10.5c-3-3.1-6.1-6.4-9.6-10
		C295.6,93.9,299.3,90.5,303,87z"/>
</g>
</svg>
